#!OML:ASF F:\VICON\USERDATA\INSTALL\rory3\rory3.ASF
:FULLY-SPECIFIED
:DEGREES
45
root 0.13843509017265426 17.135546816765494 16.21093647889925 2.337204383923756 -7.530439998855531 -5.116359305075527
lfemur -21.878003045213976 8.468712794530298 -12.363121825770914
ltibia 90.15815952456333
lfoot 3.412069944917577 -9.570060147485624
ltoes -4.138462870896616
rfemur -19.077950106312187 7.3834380075292945 33.2241935082199
rtibia 44.649015749265665
rfoot -11.686365907848487 -5.649326605497597
rtoes 4.184510461091771
lowerback 15.192897382253598 0.7471660619841637 2.190314044968349
upperback 0.18500671413394065 2.455676555841075 2.8348098828929404
thorax -8.48714656255677 1.0623953204367613 0.9301075626992341
lowerneck -20.21714737230343 -3.7821259585315334 -1.5311790740639775
upperneck 9.144735500573015 -5.505822025011375 2.7385104494843806
head 6.241858831286425 -2.1515297386526737 0.6574797680333804
lclavicle 4.287488207731266e-15 5.758861652908908e-17
lhumerus -51.36187080438542 -11.16678961506673 97.6012910660803
lradius 112.16565096858432
lwrist 28.505115600132786
lhand -28.7841523887706 2.36551274000435
lfingers 7.125019999999998
lthumb -2.276275243041505 32.03286108270973
rclavicle 4.287527000382449e-15 5.76164621395795e-17
rhumerus -45.04205526994429 11.623222118042502 -97.80682727368624
rradius 105.4899468566672
rwrist -9.334996786013695
rhand -20.24431907310735 36.40820813222051
rfingers 7.125019999999998
rthumb 6.093899738269611 6.180208744527251
46
root 0.1584651525616625 17.161471909189306 17.72474891099818 2.657793009041659 -6.670767554133197 -5.06123083396933
lfemur -24.44580192452498 8.79723974568992 -12.338394935031674
ltibia 88.26835214712386
lfoot 3.5122423624168135 -9.904061584215746
ltoes -5.757087784853278
rfemur -16.734677945957678 7.297024844397016 33.691161191654174
rtibia 44.20784378091617
rfoot -12.65135933979067 -6.829205661232744
rtoes 4.900557633385142
lowerback 15.197542606245783 0.9492591893880786 2.637748743580892
upperback 0.1273549587144528 2.8582281527157782 2.8150764441538327
thorax -8.545297400911172 1.2155411717741627 0.5973592429905443
lowerneck -20.025467067354196 -3.882576941018505 -1.4895534374753172
upperneck 9.154630662040347 -5.758811655940828 2.7710381964303386
head 6.202995481909061 -2.254365199000155 0.6396790274538362
lclavicle 4.287488207731266e-15 5.758861652908908e-17
lhumerus -53.61164425268446 -11.27391962460791 97.77425645282239
lradius 111.92080108568427
lwrist 28.49131919168589
lhand -28.789115911963112 2.440044960637994
lfingers 7.125019999999998
lthumb -2.3530454087682746 31.905103441317205
rclavicle 4.287527000382449e-15 5.761646213957979e-17
rhumerus -43.2710414030857 12.197849765953816 -97.85282028264498
rradius 105.7345877960549
rwrist -9.401892324695762
rhand -20.173456759303736 36.46517147537889
rfingers 7.125019999999998
rthumb 6.12134839409927 6.22058626189
47
root 0.1771462895668218 17.201724841975302 17.969330150207554 2.7819032918703934 -5.957160035917824 -5.054311538440404
lfemur -27.128604903880777 8.559303807358313 -13.066176047257244
ltibia 84.39217921804621
lfoot 2.43898551843543 -10.653831968995055
ltoes -7.173660180936359
rfemur -14.255682870397491 6.739940606981833 33.67888986190434
rtibia 43.41361649429668
rfoot -13.048035452694394 -7.690893949615884
rtoes 4.981477168594927
lowerback 15.113849634821777 1.1441500312932313 2.9834436526722845
upperback 0.04189734507770637 3.2840151220336766 2.734789442764378
thorax -8.576572351111645 1.3587339810982981 0.24223951100988977
lowerneck -19.92528105305436 -4.032884837232788 -1.4882156053209032
upperneck 9.30176611305168 -5.957797826387402 2.82843683992173
head 6.1902124171032735 -2.357849709626835 0.6272611577201781
lclavicle 4.287488207731266e-15 5.758861652908908e-17
lhumerus -55.35190768261809 -11.376098640952707 97.97526324502704
lradius 111.94192649150823
lwrist 28.631662881939462
lhand -28.91956496679121 2.2956994952996346
lfingers 7.125019999999998
lthumb -2.542507071955051 31.923391174484845
rclavicle 4.2875270003824495e-15 5.761646213957988e-17
rhumerus -41.52151923212972 12.786705459003167 -97.79680965441138
rradius 106.1155177652796
rwrist -9.487709510401645
rhand -20.214292043458393 36.41914638237511
rfingers 7.125019999999998
rthumb 6.176942455143404 6.337172508670539
48
root 0.220400045884119 17.294418440399504 18.81047928857282 2.9366278935376964 -5.047136765609649 -5.194915539047275
lfemur -29.892431061956984 7.839305553466614 -14.001920682525762
ltibia 78.84848274887774
lfoot 1.3446758362318458 -10.96038480305565
ltoes -8.12160296224058
rfemur -11.171299803056797 6.300837137723549 33.69994779561521
rtibia 42.47850362990074
rfoot -12.57330439132082 -7.995203056460987
rtoes 5.526604419367997
lowerback 14.96115441847062 1.3085638452633468 3.365060403067341
upperback -0.0666021591981979 3.735436131868152 2.6550461510334182
thorax -8.614726394723244 1.4718535799595247 -0.16921743629049818
lowerneck -19.727605429219228 -4.103816387760407 -1.4652906188166068
upperneck 9.48615526289888 -6.113957539055329 2.891585688529771
head 6.2052418470134665 -2.440566162193798 0.6251759409032009
lclavicle 4.287488207731266e-15 5.75886165290891e-17
lhumerus -57.4108171330705 -11.576498823174663 97.9445572959372
lradius 111.62390208911026
lwrist 28.73420051987556
lhand -29.022962876810343 2.232556649316046
lfingers 7.125019999999998
lthumb -2.7582330289138692 31.977130217602422
rclavicle 4.287527000382449e-15 5.76164621395798e-17
rhumerus -39.84418435726585 13.366725685629355 -97.64875383800815
rradius 106.51237423096123
rwrist -9.543523706179812
rhand -20.181034744809992 36.46546099591879
rfingers 7.125019999999998
rthumb 6.220935193493276 6.407023871144463
49
root 0.2811319278467037 17.43957999781236 19.836934739160405 3.108667245275379 -3.8597955094132397 -5.410069661625489
lfemur -32.25411262839418 6.839055133164667 -15.030373999765699
ltibia 72.088117763057
lfoot 0.27853570901111213 -10.672366320973872
ltoes -8.7019534898142
rfemur -9.395088842573967 5.517893711768485 33.13913068626695
rtibia 41.36488823934771
rfoot -11.826883878063045 -7.754583195092473
rtoes 5.674397816192138
lowerback 14.724339532183912 1.4286987725532794 3.793441120503135
upperback -0.22743615923283195 4.066948569017775 2.546576882349841
thorax -8.608228720870708 1.5975220950104279 -0.5449395577156104
lowerneck -19.606787685865548 -4.237382546436332 -1.499533891052188
upperneck 9.589448831329316 -6.284698928930813 2.920930329797571
head 6.203532792774441 -2.52815482389122 0.6197798158624657
lclavicle 4.287488207731266e-15 5.75886165290891e-17
lhumerus -58.28985453017516 -11.539156135854055 97.87989335572522
lradius 110.91648894019157
lwrist 28.730903627330328
lhand -29.15110403573109 2.3378037143857835
lfingers 7.125019999999998
lthumb -2.925591575772031 32.161949614451046
rclavicle 4.2875270003824495e-15 5.761646213958022e-17
rhumerus -38.38927411895557 13.906469880965936 -97.45307716469569
rradius 106.72454402234234
rwrist -9.64032517441591
rhand -20.218163316252213 36.44943759053943
rfingers 7.125019999999998
rthumb 6.146364268381759 6.357046189092908
50
root 0.34885655059336473 17.617399855594723 20.677789293906226 3.2151644303233153 -2.5002984534022934 -5.564660906438288
lfemur -33.46886352408147 5.566031351754978 -15.949798259972555
ltibia 64.35269886661264
lfoot -1.2990541363257415 -10.109603077985417
ltoes -8.541704059516265
rfemur -7.766252009199496 4.843955733658467 32.71325198082533
rtibia 39.89920837610847
rfoot -11.107690777278133 -7.171270251124808
rtoes 5.067205964828084
lowerback 14.372932838447417 1.4797731099713916 4.187799874270602
upperback -0.4206216202930877 4.19319018681629 2.399603841975823
thorax -8.601034760077578 1.669054238270044 -0.9279040518493238
lowerneck -19.403778342207296 -4.319344591100011 -1.5215265047985413
upperneck 9.652897486254412 -6.446335668366844 2.935012345581516
head 6.214316914334561 -2.613170343893659 0.6199361617937913
lclavicle 4.287488207731266e-15 5.75886165290891e-17
lhumerus -58.94132310962658 -11.467058148725787 97.67664177452653
lradius 110.03510128789107
lwrist 28.636061915338296
lhand -29.21772861242301 2.49962022217158
lfingers 7.125019999999998
lthumb -3.039950940861602 32.4009292809174
rclavicle 4.2875270003824495e-15 5.76164621395801e-17
rhumerus -37.29621255805526 14.358473650705436 -97.2479775144542
rradius 106.67359541617806
rwrist -9.722794363911778
rhand -20.234604882702083 36.49113593074979
rfingers 7.125019999999998
rthumb 6.200599807205919 6.451009825713834
